<svg width="680" height="920" viewBox="0 0 680 920" xmlns="http://www.w3.org/2000/svg" style="background:white;font-family:Arial,sans-serif">

  <defs>
    <marker id="arrow" viewBox="0 0 10 10" refX="8" refY="5" markerWidth="6" markerHeight="6" orient="auto-start-reverse">
      <path d="M2 1L8 5L2 9" fill="none" stroke="#888" stroke-width="1.5" stroke-linecap="round" stroke-linejoin="round"/>
    </marker>
    <marker id="arrow-empty" viewBox="0 0 12 12" refX="10" refY="6" markerWidth="8" markerHeight="8" orient="auto-start-reverse">
      <path d="M2 2L10 6L2 10Z" fill="white" stroke="#888" stroke-width="1.2"/>
    </marker>
    <marker id="diamond" viewBox="0 0 14 10" refX="0" refY="5" markerWidth="10" markerHeight="8" orient="auto">
      <path d="M7 1L13 5L7 9L1 5Z" fill="none" stroke="#888" stroke-width="1.2"/>
    </marker>
  </defs>

  <!-- USUARIO (abstracta) -->
  <rect x="230" y="30" width="220" height="120" rx="6" fill="#EEEDFE" stroke="#534AB7" stroke-width="1"/>
  <rect x="230" y="30" width="220" height="26" rx="6" fill="#AFA9EC"/>
  <rect x="230" y="42" width="220" height="14" fill="#AFA9EC"/>
  <text x="340" y="48" text-anchor="middle" dominant-baseline="central" font-size="13" font-weight="bold" fill="#26215C">«abstract» Usuario</text>
  <line x1="230" y1="56" x2="450" y2="56" stroke="#534AB7" stroke-width="0.5"/>
  <text x="238" y="72" dominant-baseline="central" font-size="12" fill="#3C3489">- id: int</text>
  <text x="238" y="88" dominant-baseline="central" font-size="12" fill="#3C3489">- nombre: String</text>
  <text x="238" y="104" dominant-baseline="central" font-size="12" fill="#3C3489">- correo: String</text>
  <text x="238" y="120" dominant-baseline="central" font-size="12" fill="#3C3489">- contrasena: String</text>
  <line x1="230" y1="132" x2="450" y2="132" stroke="#534AB7" stroke-width="0.5"/>
  <text x="238" y="143" dominant-baseline="central" font-size="12" fill="#3C3489">+ iniciarSesion(): boolean</text>

  <!-- Herencia Cliente -> Usuario -->
  <path d="M200 180 L200 150 L230 150" fill="none" stroke="#888" stroke-width="1" marker-end="url(#arrow-empty)"/>

  <!-- Herencia Administrador -> Usuario -->
  <path d="M480 180 L480 150 L450 150" fill="none" stroke="#888" stroke-width="1" marker-end="url(#arrow-empty)"/>

  <!-- CLIENTE -->
  <rect x="60" y="180" width="200" height="130" rx="6" fill="#E1F5EE" stroke="#0F6E56" stroke-width="1"/>
  <rect x="60" y="180" width="200" height="26" rx="6" fill="#5DCAA5"/>
  <rect x="60" y="192" width="200" height="14" fill="#5DCAA5"/>
  <text x="160" y="202" text-anchor="middle" dominant-baseline="central" font-size="13" font-weight="bold" fill="#04342C">Cliente</text>
  <line x1="60" y1="214" x2="260" y2="214" stroke="#0F6E56" stroke-width="0.5"/>
  <text x="68" y="230" dominant-baseline="central" font-size="12" fill="#085041">- historialPedidos: List</text>
  <text x="68" y="246" dominant-baseline="central" font-size="12" fill="#085041">- mesa: int</text>
  <line x1="60" y1="258" x2="260" y2="258" stroke="#0F6E56" stroke-width="0.5"/>
  <text x="68" y="272" dominant-baseline="central" font-size="12" fill="#085041">+ realizarPedido(): Pedido</text>
  <text x="68" y="288" dominant-baseline="central" font-size="12" fill="#085041">+ consultarEstado(): String</text>
  <text x="68" y="302" dominant-baseline="central" font-size="12" fill="#085041">+ realizarPago(): Pago</text>

  <!-- ADMINISTRADOR -->
  <rect x="420" y="180" width="210" height="130" rx="6" fill="#FAECE7" stroke="#993C1D" stroke-width="1"/>
  <rect x="420" y="180" width="210" height="26" rx="6" fill="#F0997B"/>
  <rect x="420" y="192" width="210" height="14" fill="#F0997B"/>
  <text x="525" y="202" text-anchor="middle" dominant-baseline="central" font-size="13" font-weight="bold" fill="#4A1B0C">Administrador</text>
  <line x1="420" y1="214" x2="630" y2="214" stroke="#993C1D" stroke-width="0.5"/>
  <text x="428" y="230" dominant-baseline="central" font-size="12" fill="#712B13">- nivel: String</text>
  <line x1="420" y1="242" x2="630" y2="242" stroke="#993C1D" stroke-width="0.5"/>
  <text x="428" y="258" dominant-baseline="central" font-size="12" fill="#712B13">+ agregarProducto(): void</text>
  <text x="428" y="274" dominant-baseline="central" font-size="12" fill="#712B13">+ editarProducto(): void</text>
  <text x="428" y="290" dominant-baseline="central" font-size="12" fill="#712B13">+ verPedidos(): List</text>
  <text x="428" y="306" dominant-baseline="central" font-size="12" fill="#712B13">+ supervisarPagos(): void</text>

  <!-- Flecha Cliente -> Pedido -->
  <path d="M160 310 L160 420" fill="none" stroke="#888" stroke-width="1" stroke-dasharray="5 3" marker-end="url(#arrow)"/>
  <text x="168" y="370" dominant-baseline="central" font-size="11" fill="#555">crea</text>

  <!-- PEDIDO -->
  <rect x="60" y="420" width="230" height="160" rx="6" fill="#E6F1FB" stroke="#185FA5" stroke-width="1"/>
  <rect x="60" y="420" width="230" height="26" rx="6" fill="#85B7EB"/>
  <rect x="60" y="432" width="230" height="14" fill="#85B7EB"/>
  <text x="175" y="442" text-anchor="middle" dominant-baseline="central" font-size="13" font-weight="bold" fill="#042C53">Pedido</text>
  <line x1="60" y1="454" x2="290" y2="454" stroke="#185FA5" stroke-width="0.5"/>
  <text x="68" y="470" dominant-baseline="central" font-size="12" fill="#0C447C">- idPedido: int</text>
  <text x="68" y="486" dominant-baseline="central" font-size="12" fill="#0C447C">- estado: String</text>
  <text x="68" y="502" dominant-baseline="central" font-size="12" fill="#0C447C">- fechaHora: Date</text>
  <text x="68" y="518" dominant-baseline="central" font-size="12" fill="#0C447C">- productos: List&lt;Producto&gt;</text>
  <text x="68" y="534" dominant-baseline="central" font-size="12" fill="#0C447C">- tiempoEstimado: int</text>
  <line x1="60" y1="546" x2="290" y2="546" stroke="#185FA5" stroke-width="0.5"/>
  <text x="68" y="562" dominant-baseline="central" font-size="12" fill="#0C447C">+ calcularTotal(): double</text>
  <text x="68" y="578" dominant-baseline="central" font-size="12" fill="#0C447C">+ actualizarEstado(): void</text>

  <!-- Flecha Pedido -> Producto -->
  <path d="M290 500 L360 500" fill="none" stroke="#888" stroke-width="1" marker-start="url(#diamond)" marker-end="url(#arrow)"/>
  <text x="300" y="490" dominant-baseline="central" font-size="11" fill="#555">contiene</text>

  <!-- PRODUCTO -->
  <rect x="360" y="420" width="210" height="150" rx="6" fill="#EAF3DE" stroke="#3B6D11" stroke-width="1"/>
  <rect x="360" y="420" width="210" height="26" rx="6" fill="#97C459"/>
  <rect x="360" y="432" width="210" height="14" fill="#97C459"/>
  <text x="465" y="442" text-anchor="middle" dominant-baseline="central" font-size="13" font-weight="bold" fill="#173404">Producto</text>
  <line x1="360" y1="454" x2="570" y2="454" stroke="#3B6D11" stroke-width="0.5"/>
  <text x="368" y="470" dominant-baseline="central" font-size="12" fill="#27500A">- idProducto: int</text>
  <text x="368" y="486" dominant-baseline="central" font-size="12" fill="#27500A">- nombre: String</text>
  <text x="368" y="502" dominant-baseline="central" font-size="12" fill="#27500A">- precio: double</text>
  <text x="368" y="518" dominant-baseline="central" font-size="12" fill="#27500A">- descripcion: String</text>
  <text x="368" y="534" dominant-baseline="central" font-size="12" fill="#27500A">- disponible: boolean</text>
  <line x1="360" y1="546" x2="570" y2="546" stroke="#3B6D11" stroke-width="0.5"/>
  <text x="368" y="562" dominant-baseline="central" font-size="12" fill="#27500A">+ getDetalles(): String</text>

  <!-- Flecha Pedido -> Pago -->
  <path d="M175 580 L175 640" fill="none" stroke="#888" stroke-width="1" marker-end="url(#arrow)"/>
  <text x="183" y="612" dominant-baseline="central" font-size="11" fill="#555">genera</text>

  <!-- PAGO -->
  <rect x="60" y="640" width="230" height="150" rx="6" fill="#FAEEDA" stroke="#854F0B" stroke-width="1"/>
  <rect x="60" y="640" width="230" height="26" rx="6" fill="#EF9F27"/>
  <rect x="60" y="652" width="230" height="14" fill="#EF9F27"/>
  <text x="175" y="662" text-anchor="middle" dominant-baseline="central" font-size="13" font-weight="bold" fill="#412402">Pago</text>
  <line x1="60" y1="674" x2="290" y2="674" stroke="#854F0B" stroke-width="0.5"/>
  <text x="68" y="690" dominant-baseline="central" font-size="12" fill="#633806">- idPago: int</text>
  <text x="68" y="706" dominant-baseline="central" font-size="12" fill="#633806">- monto: double</text>
  <text x="68" y="722" dominant-baseline="central" font-size="12" fill="#633806">- metodoPago: String</text>
  <text x="68" y="738" dominant-baseline="central" font-size="12" fill="#633806">- estado: String</text>
  <text x="68" y="754" dominant-baseline="central" font-size="12" fill="#633806">- fecha: Date</text>
  <line x1="60" y1="766" x2="290" y2="766" stroke="#854F0B" stroke-width="0.5"/>
  <text x="68" y="782" dominant-baseline="central" font-size="12" fill="#633806">+ procesarPago(): boolean</text>

  <!-- MENU -->
  <rect x="360" y="640" width="220" height="140" rx="6" fill="#F1EFE8" stroke="#5F5E5A" stroke-width="1"/>
  <rect x="360" y="640" width="220" height="26" rx="6" fill="#B4B2A9"/>
  <rect x="360" y="652" width="220" height="14" fill="#B4B2A9"/>
  <text x="470" y="662" text-anchor="middle" dominant-baseline="central" font-size="13" font-weight="bold" fill="#2C2C2A">Menu</text>
  <line x1="360" y1="674" x2="580" y2="674" stroke="#5F5E5A" stroke-width="0.5"/>
  <text x="368" y="690" dominant-baseline="central" font-size="12" fill="#444441">- idMenu: int</text>
  <text x="368" y="706" dominant-baseline="central" font-size="12" fill="#444441">- productos: List&lt;Producto&gt;</text>
  <line x1="360" y1="718" x2="580" y2="718" stroke="#5F5E5A" stroke-width="0.5"/>
  <text x="368" y="734" dominant-baseline="central" font-size="12" fill="#444441">+ mostrarProductos(): void</text>
  <text x="368" y="750" dominant-baseline="central" font-size="12" fill="#444441">+ buscarProducto(): Producto</text>
  <text x="368" y="766" dominant-baseline="central" font-size="12" fill="#444441">+ agregarProducto(): void</text>

  <!-- Flecha Menu -> Producto -->
  <path d="M465 640 L465 570" fill="none" stroke="#888" stroke-width="1" stroke-dasharray="5 3" marker-end="url(#arrow)"/>

  <!-- LEYENDA -->
  <rect x="60" y="840" width="560" height="60" rx="6" fill="none" stroke="#ccc" stroke-width="0.5"/>
  <text x="80" y="862" dominant-baseline="central" font-size="12" fill="#555">Leyenda:</text>
  <line x1="140" y1="862" x2="175" y2="862" stroke="#888" stroke-width="1" marker-end="url(#arrow-empty)"/>
  <text x="180" y="862" dominant-baseline="central" font-size="12" fill="#555">Herencia</text>
  <line x1="265" y1="862" x2="300" y2="862" stroke="#888" stroke-width="1" stroke-dasharray="5 3" marker-end="url(#arrow)"/>
  <text x="305" y="862" dominant-baseline="central" font-size="12" fill="#555">Asociación</text>
  <line x1="400" y1="862" x2="435" y2="862" stroke="#888" stroke-width="1" marker-start="url(#diamond)" marker-end="url(#arrow)"/>
  <text x="440" y="862" dominant-baseline="central" font-size="12" fill="#555">Composición</text>
  <text x="80" y="885" dominant-baseline="central" font-size="11" fill="#888">Sistema de Gestión de Pedidos para Restaurante — Java POO</text>
</svg>
